<svg id="Шар_1" data-name="Шар 1" xmlns="http://www.w3.org/2000/svg" width="90" height="90" viewBox="0 0 90 90"><defs><style>.cls-1{fill:#1d1d1b;}</style></defs><path class="cls-1" d="M59.31,58.79l-9.76-.11c-1.58-.79-2.7-4.94-2.7-4.94H42.14s-1.13,4.15-2.7,4.94l-9.76.11s-6.74-3.71-8.31-8.08c0,0,3.82,11.67,8.19,13H41.24l3.25-3.22,3.26,3.22H59.42c4.38-1.35,8.2-13,8.2-13C66.05,55.08,59.31,58.79,59.31,58.79Z"/><rect class="cls-1" x="41.46" y="71.47" width="6.62" height="16.28"/><ellipse class="cls-1" cx="29.17" cy="37.01" rx="6.79" ry="3.37"/><ellipse class="cls-1" cx="60.75" cy="37.01" rx="6.79" ry="3.37"/><path class="cls-1" d="M20.81,29.08c-.36.25,3.07-5.39,10.1-5.39s12.24,6.56,10,10a4.1,4.1,0,0,1-5.76-1.2C33.1,29.56,28.07,23.92,20.81,29.08Z"/><path class="cls-1" d="M69.19,29.08c.36.25-3.07-5.39-10.1-5.39s-12.24,6.56-10,10a4.1,4.1,0,0,0,5.76-1.2C56.9,29.56,61.93,23.92,69.19,29.08Z"/><path class="cls-1" d="M75.53,10.62c-31.78-18.76-60.84-.15-61.13,0l-.79.52V48.57l.1.81h0c2.67,20.48,15.6,36.08,31.14,36.08S73.35,69.86,76,49.38h0s.1-.73.1-.81l.25-37.44ZM44.87,81.94c-13.66,0-25-14-27.6-32.56h0c-.06-.28,0-.53,0-.81l-.15-35.44c4.66-2.68,29.08-15.14,55.74,0L72.6,48.57C70.28,67.5,58.73,81.94,44.87,81.94Z"/></svg>